Coordinates
version=1
nRows=27
nColumns=38
inDegrees=no

Units are S.I. units (second, meters, Newtons, ...)
If the header above contains a line with 'inDegrees', this indicates whether rotational values are in degrees (yes) or radians (no).

endheader
time	pelvis_tilt	pelvis_list	pelvis_rotation	pelvis_tx	pelvis_ty	pelvis_tz	hip_flexion_r	hip_adduction_r	hip_rotation_r	knee_angle_r	ankle_angle_r	subtalar_angle_r	mtp_angle_r	hip_flexion_l	hip_adduction_l	hip_rotation_l	knee_angle_l	ankle_angle_l	subtalar_angle_l	mtp_angle_l	lumbar_extension	lumbar_bending	lumbar_rotation	arm_flex_r	arm_add_r	arm_rot_r	elbow_flex_r	pro_sup_r	wrist_flex_r	wrist_dev_r	arm_flex_l	arm_add_l	arm_rot_l	elbow_flex_l	pro_sup_l	wrist_flex_l	wrist_dev_l
0	-2.85141	1.4461	-1.85701	0.802671	0.669029	1.06836	-0.0389237	-0.0042029	-0.204794	0.440635	-0.0620706	0	0	0.167959	-0.0347432	-0.298999	0.958505	-0.0837598	0	0	-0.261089	0.099494	-0.0851989	-0.284197	-0.240202	-0.120932	0.45097	0.412353	0	0	-0.149609	-0.541084	1.05289	0.709456	0.673957	0	0
0.01	-2.83956	1.44887	-1.87362	0.803393	0.677793	1.06779	-0.0478106	-0.00360486	-0.194447	0.434394	-0.0587228	0	0	0.182972	-0.03768	-0.316818	0.922775	-0.0861665	0	0	-0.259677	0.0969799	-0.0825956	-0.283873	-0.242391	-0.115562	0.455998	0.403086	0	0	-0.162031	-0.530828	1.04858	0.701754	0.670962	0	0
0.02	-2.83545	1.44881	-1.88179	0.804021	0.686847	1.06734	-0.0601703	-0.00336902	-0.188053	0.428778	-0.0549681	0	0	0.192039	-0.0411876	-0.337776	0.882532	-0.0899857	0	0	-0.260544	0.0947732	-0.0806998	-0.283716	-0.244437	-0.112759	0.461563	0.392201	0	0	-0.173946	-0.520951	1.04651	0.694126	0.669629	0	0
0.03	-2.83597	1.4485	-1.8848	0.804497	0.695981	1.0668	-0.0734689	-0.00274892	-0.182452	0.421999	-0.0514395	0	0	0.199219	-0.0446345	-0.35762	0.840167	-0.0944137	0	0	-0.262016	0.0932545	-0.0782964	-0.284837	-0.246934	-0.108403	0.468189	0.384272	0	0	-0.184963	-0.511599	1.04449	0.68791	0.666935	0	0
0.04	-2.8359	1.44924	-1.88772	0.804907	0.705149	1.06609	-0.0855029	-0.00192128	-0.177409	0.415816	-0.0478157	0	0	0.20605	-0.0474802	-0.375733	0.795294	-0.098952	0	0	-0.262149	0.091996	-0.0766273	-0.285891	-0.249755	-0.101796	0.474085	0.380014	0	0	-0.195955	-0.502634	1.04152	0.682561	0.660457	0	0
0.05	-2.83249	1.45125	-1.89298	0.805199	0.714326	1.06518	-0.0958504	-0.00119996	-0.172921	0.41059	-0.0439824	0	0	0.213084	-0.0484657	-0.390404	0.746903	-0.103531	0	0	-0.260587	0.0908686	-0.0766923	-0.286085	-0.2521	-0.0967454	0.479036	0.375552	0	0	-0.20695	-0.493934	1.03843	0.677661	0.651412	0	0
0.06	-2.82722	1.45444	-1.8988	0.805321	0.723489	1.06403	-0.104856	-0.000384554	-0.169575	0.406162	-0.0397039	0	0	0.220529	-0.047286	-0.398886	0.695821	-0.108003	0	0	-0.257081	0.0902071	-0.0776686	-0.286087	-0.253606	-0.0944319	0.48302	0.369255	0	0	-0.216599	-0.484777	1.03983	0.671109	0.648253	0	0
0.07	-2.82024	1.45922	-1.90554	0.805348	0.732663	1.06264	-0.112475	0.000882296	-0.16701	0.401071	-0.0352161	0	0	0.228883	-0.044764	-0.401835	0.643388	-0.112725	0	0	-0.251387	0.0898908	-0.0789378	-0.285715	-0.254828	-0.0922121	0.485292	0.364022	0	0	-0.224801	-0.475302	1.04577	0.662694	0.651989	0	0
0.08	-2.80781	1.46585	-1.918	0.805297	0.741959	1.06101	-0.117743	0.00191381	-0.164618	0.396804	-0.0309108	0	0	0.238552	-0.0412671	-0.39997	0.591534	-0.117099	0	0	-0.243448	0.089455	-0.0800106	-0.285095	-0.256262	-0.0890531	0.486038	0.361527	0	0	-0.233225	-0.465824	1.05025	0.654496	0.65414	0	0
0.09	-2.78517	1.47446	-1.93988	0.80513	0.751276	1.05911	-0.120351	0.00269658	-0.16302	0.393579	-0.0259629	0	0	0.250058	-0.0358443	-0.391008	0.539804	-0.121963	0	0	-0.232874	0.0890147	-0.0823387	-0.283968	-0.257709	-0.0845281	0.48532	0.36028	0	0	-0.241928	-0.455986	1.05345	0.645649	0.652762	0	0
0.1	-2.75433	1.48405	-1.96925	0.804864	0.760706	1.057	-0.121205	0.00324298	-0.164028	0.392119	-0.0206041	0	0	0.26236	-0.0294302	-0.378305	0.489858	-0.125863	0	0	-0.220453	0.0885946	-0.0857514	-0.282712	-0.259077	-0.0788431	0.483758	0.359419	0	0	-0.250799	-0.445979	1.05764	0.636	0.650963	0	0
0.11	-2.72385	1.49272	-1.99833	0.804496	0.770244	1.05482	-0.122898	0.0035595	-0.167153	0.391109	-0.015469	0	0	0.273379	-0.0228444	-0.365389	0.442942	-0.127525	0	0	-0.209065	0.0881205	-0.0889083	-0.281701	-0.260283	-0.0736127	0.482592	0.358511	0	0	-0.259654	-0.436741	1.06087	0.627794	0.646956	0	0
0.12	-2.69093	1.50075	-2.03044	0.804022	0.77988	1.05259	-0.125187	0.00347026	-0.170796	0.38996	-0.0108635	0	0	0.283634	-0.0161733	-0.352881	0.399704	-0.12753	0	0	-0.19867	0.0875094	-0.091435	-0.280672	-0.261604	-0.068636	0.481548	0.357028	0	0	-0.267966	-0.427976	1.0635	0.620517	0.638668	0	0
0.13	-2.6446	1.50835	-2.07699	0.803527	0.789559	1.05034	-0.127029	0.00251197	-0.173341	0.390239	-0.00622168	0	0	0.292907	-0.00882313	-0.339861	0.35846	-0.12712	0	0	-0.188626	0.0862103	-0.092782	-0.279771	-0.262882	-0.0640982	0.48062	0.354881	0	0	-0.275093	-0.419092	1.06802	0.612251	0.629755	0	0
0.14	-2.58976	1.51432	-2.13298	0.803066	0.799341	1.04817	-0.130316	0.000956061	-0.175446	0.391	-0.00176148	0	0	0.299647	-0.00116834	-0.326507	0.319947	-0.126791	0	0	-0.180162	0.0840655	-0.0926271	-0.27978	-0.263753	-0.0609186	0.480627	0.352801	0	0	-0.28115	-0.410239	1.07435	0.602795	0.626003	0	0
0.15	-2.538	1.51839	-2.18665	0.802636	0.809213	1.04614	-0.13516	-0.00111087	-0.177392	0.392353	0.00236623	0	0	0.305124	0.00552515	-0.317354	0.288567	-0.126391	0	0	-0.17385	0.0813429	-0.0911029	-0.28004	-0.26442	-0.0579936	0.480774	0.350555	0	0	-0.285961	-0.401611	1.08268	0.592399	0.627145	0	0
0.16	-2.49325	1.52056	-2.2341	0.802273	0.819117	1.04426	-0.14162	-0.00363727	-0.178672	0.394656	0.00605243	0	0	0.309615	0.0115032	-0.313316	0.264988	-0.12566	0	0	-0.170125	0.0777542	-0.0887074	-0.279884	-0.264771	-0.0551815	0.480976	0.348259	0	0	-0.290027	-0.394312	1.08951	0.583508	0.627342	0	0
0.17	-2.44972	1.5212	-2.28125	0.801942	0.828982	1.04254	-0.148589	-0.00719881	-0.178739	0.39799	0.00941664	0	0	0.313471	0.0174012	-0.311983	0.248306	-0.12491	0	0	-0.168524	0.0731947	-0.0854389	-0.279035	-0.264784	-0.0528387	0.48094	0.345484	0	0	-0.293257	-0.388045	1.0941	0.575777	0.624436	0	0
0.18	-2.41144	1.52032	-2.3238	0.801656	0.838887	1.04101	-0.156233	-0.0116998	-0.17839	0.40216	0.0128758	0	0	0.31632	0.0232205	-0.312813	0.237876	-0.125297	0	0	-0.168729	0.0676043	-0.0814798	-0.277762	-0.264485	-0.0501535	0.480567	0.341414	0	0	-0.295566	-0.383154	1.09823	0.569352	0.617503	0	0
0.19	-2.38847	1.51805	-2.35147	0.801418	0.848861	1.03966	-0.164946	-0.0167337	-0.178302	0.406914	0.01557	0	0	0.318241	0.028141	-0.316761	0.234739	-0.127162	0	0	-0.170475	0.0612505	-0.0766839	-0.276829	-0.263937	-0.046707	0.48033	0.337233	0	0	-0.29691	-0.379669	1.1042	0.563836	0.611597	0	0
0.2	-2.38408	1.51493	-2.36096	0.801207	0.858939	1.03846	-0.174494	-0.0218867	-0.178045	0.41248	0.0176343	0	0	0.319135	0.0317166	-0.322843	0.237887	-0.130405	0	0	-0.173618	0.0548896	-0.0708527	-0.276688	-0.26348	-0.0426682	0.480901	0.333012	0	0	-0.297182	-0.377025	1.11162	0.558432	0.607026	0	0
0.21	-2.39768	1.51137	-2.35284	0.800991	0.869108	1.03737	-0.18466	-0.026872	-0.177146	0.419025	0.0189107	0	0	0.31904	0.0336925	-0.330162	0.246811	-0.135092	0	0	-0.178085	0.0490403	-0.0635177	-0.27779	-0.26361	-0.0373254	0.482868	0.32754	0	0	-0.296042	-0.375678	1.12066	0.554046	0.601293	0	0
0.22	-2.41162	1.50862	-2.34438	0.800724	0.879424	1.03628	-0.194069	-0.0314732	-0.175261	0.426138	0.018609	0	0	0.319746	0.0339647	-0.337025	0.261742	-0.139307	0	0	-0.181614	0.0438767	-0.0558469	-0.279383	-0.263804	-0.0322894	0.484627	0.321522	0	0	-0.294948	-0.375038	1.12831	0.550382	0.594434	0	0
0.23	-2.42616	1.50621	-2.33568	0.800446	0.889985	1.03522	-0.203153	-0.0360838	-0.172402	0.433863	0.0169409	0	0	0.320085	0.0331569	-0.343543	0.280752	-0.142858	0	0	-0.184195	0.0390264	-0.0479915	-0.281602	-0.26429	-0.0268009	0.486338	0.313563	0	0	-0.293925	-0.375287	1.13618	0.547761	0.584178	0	0
0.24	-2.44022	1.5038	-2.32766	0.800122	0.900841	1.03425	-0.211895	-0.0412168	-0.1694	0.442692	0.0140279	0	0	0.319469	0.0320986	-0.349012	0.302515	-0.145502	0	0	-0.185879	0.0341132	-0.0403492	-0.284359	-0.264933	-0.0210738	0.487514	0.306668	0	0	-0.29354	-0.375994	1.14338	0.545372	0.574264	0	0
0.25	-2.45133	1.50123	-2.32298	0.799741	0.912076	1.03338	-0.220702	-0.0471064	-0.165846	0.451522	0.0100519	0	0	0.317476	0.0312821	-0.353778	0.326054	-0.147372	0	0	-0.186451	0.0289704	-0.0324575	-0.288436	-0.266001	-0.0141839	0.48868	0.301967	0	0	-0.293686	-0.376587	1.15061	0.542124	0.567356	0	0
0.26	-2.45874	1.49824	-2.32216	0.799241	0.923653	1.03258	-0.229498	-0.0539303	-0.1614	0.461027	0.00496184	0	0	0.313729	0.0314548	-0.357076	0.34962	-0.149156	0	0	-0.186337	0.0233842	-0.0245177	-0.293663	-0.267608	-0.00504919	0.489763	0.300364	0	0	-0.294532	-0.377361	1.15644	0.53857	0.562423	0	0
